<?xml version="1.0" encoding="iso-8859-1"?>
<!-- Generator: Adobe Illustrator 19.0.0, SVG Export Plug-In . SVG Version: 6.00 Build 0)  -->
<svg version="1.1" id="Capa_1" xmlns="http://www.w3.org/2000/svg" xmlns:xlink="http://www.w3.org/1999/xlink" x="0px" y="0px"
	 viewBox="0 0 460 460" style="enable-background:new 0 0 460 460;" xml:space="preserve">
<g id="XMLID_1040_">
	<path id="XMLID_1041_" d="M425,335V35H35v300H0v90h460v-90H425z M430,395H30v-30h400V395z M395,65v270h-90V155H155v180H65V65H395z
		 M275,335h-90V185h90V335z"/>
	<circle id="XMLID_1046_" cx="110" cy="110" r="15"/>
	<circle id="XMLID_1047_" cx="170" cy="110" r="15"/>
	<circle id="XMLID_1048_" cx="230" cy="110" r="15"/>
	<circle id="XMLID_1049_" cx="290" cy="110" r="15"/>
	<circle id="XMLID_1050_" cx="350" cy="110" r="15"/>
	<circle id="XMLID_1051_" cx="350" cy="170" r="15"/>
	<circle id="XMLID_1052_" cx="350" cy="230" r="15"/>
	<circle id="XMLID_1053_" cx="350" cy="290" r="15"/>
	<circle id="XMLID_1054_" cx="110" cy="170" r="15"/>
	<circle id="XMLID_1055_" cx="110" cy="230" r="15"/>
	<circle id="XMLID_1056_" cx="110" cy="290" r="15"/>
</g>
<g>
</g>
<g>
</g>
<g>
</g>
<g>
</g>
<g>
</g>
<g>
</g>
<g>
</g>
<g>
</g>
<g>
</g>
<g>
</g>
<g>
</g>
<g>
</g>
<g>
</g>
<g>
</g>
<g>
</g>
</svg>
