<?xml version="1.0" encoding="iso-8859-1"?>
<!-- Generator: Adobe Illustrator 17.1.0, SVG Export Plug-In . SVG Version: 6.00 Build 0)  -->
<!DOCTYPE svg PUBLIC "-//W3C//DTD SVG 1.1//EN" "http://www.w3.org/Graphics/SVG/1.1/DTD/svg11.dtd">
<svg version="1.1" id="Capa_1" xmlns="http://www.w3.org/2000/svg" xmlns:xlink="http://www.w3.org/1999/xlink" x="0px" y="0px"
	 viewBox="0 0 319.957 319.957" style="enable-background:new 0 0 319.957 319.957;" xml:space="preserve">
<path d="M283.022,244.724l-21.434-51.506c-0.016-0.037-0.031-0.073-0.047-0.11c-8.646-20.021-17.788-34.213-28.771-44.661
	c-14.521-13.816-32.436-20.821-53.244-20.821h-39.098c-20.808,0-38.722,7.005-53.243,20.821
	c-10.981,10.448-20.123,24.639-28.77,44.661c-0.016,0.037-0.031,0.074-0.047,0.11l-21.434,51.506
	c-0.983,2.365-0.914,5.036,0.192,7.346s3.144,4.039,5.603,4.754l46.082,13.407v24.383c0,4.089,2.757,7.665,6.712,8.704
	l62.149,16.339c0.081,0.021,0.163,0.042,0.245,0.061l0.001,0c0.005,0.001,0.011,0.002,0.016,0.003
	c0.005,0.001,0.013,0.003,0.019,0.004c0.007,0.001,0.014,0.003,0.021,0.005c0.006,0.001,0.013,0.003,0.019,0.004
	c0.008,0.002,0.015,0.003,0.022,0.005c0.001,0,0.002,0,0.003,0c0.634,0.142,1.274,0.212,1.913,0.216c0,0,0.014,0,0.021,0
	c0.01,0,0.016,0,0.024,0c0.008,0,0.015,0,0.021,0c0.007,0,0.016,0,0.023,0h0.001c0.698-0.003,1.4-0.088,2.092-0.258
	c0.001,0,0.002,0,0.002,0c0.007-0.001,0.014-0.003,0.02-0.004c0.001,0,0.002,0,0.003-0.001c0.007-0.001,0.014-0.003,0.021-0.005
	c0.002,0,0.004-0.001,0.006-0.001c0.005-0.001,0.009-0.002,0.014-0.003c0.007-0.001,0.014-0.003,0.021-0.005
	c0.006-0.002,0.013-0.003,0.019-0.005c0.015-0.003,0.029-0.007,0.044-0.011c0.001,0,0.002,0,0.003-0.001l0.003,0
	c0.002,0,0.003-0.001,0.005-0.001l62.161-16.341c3.955-1.04,6.712-4.615,6.712-8.704v-24.383l46.08-13.407
	c2.459-0.715,4.496-2.444,5.603-4.754S284.005,247.089,283.022,244.724z M150.978,299.285l-44.165-11.611v-12.206l9.077,2.641
	c4.778,1.39,9.768-1.355,11.156-6.127c1.389-4.772-1.354-9.767-6.127-11.156l-14.106-4.104v-27.457l44.165,11.611V299.285z
	 M213.147,256.721l-13.081,3.806c-4.772,1.389-7.516,6.383-6.127,11.156s6.38,7.516,11.156,6.127l8.052-2.343v12.207l-44.169,11.611
	v-58.408l44.169-11.612V256.721z M231.147,251.484v-33.891c0-2.791-1.294-5.423-3.504-7.127s-5.087-2.287-7.784-1.577l-6.071,1.596
	v-11.742c0-4.971-4.029-9-9-9s-9,4.029-9,9v16.475l-35.81,9.415l-35.81-9.415v-16.474c0-4.971-4.029-9-9-9s-9,4.029-9,9v11.742
	l-6.067-1.595c-2.695-0.709-5.573-0.127-7.784,1.577c-2.209,1.704-3.504,4.337-3.504,7.127v33.892l-31.393-9.133l17.545-42.161
	c16.527-38.243,36.109-54.564,65.466-54.564h39.096c29.356,0,48.938,16.321,65.466,54.564l17.545,42.161L231.147,251.484z
	 M160.494,112.294c30.959,0,56.146-25.188,56.146-56.147C216.641,25.188,191.453,0,160.494,0c-19.108,0-36.018,9.595-46.164,24.22
	c-0.298,0.374-0.563,0.768-0.796,1.179c-5.808,8.839-9.188,19.406-9.188,30.749C104.347,87.107,129.534,112.294,160.494,112.294z
	 M123.728,45.96c10.088,8.743,23.081,13.705,36.767,13.705c6.468,0,12.815-1.094,18.864-3.251c4.682-1.669,7.124-6.818,5.455-11.5
	c-1.669-4.681-6.816-7.124-11.5-5.454c-4.104,1.463-8.417,2.205-12.819,2.205c-10.533,0-20.465-4.327-27.607-11.817
	C139.839,22.553,149.646,18,160.494,18c21.034,0,38.146,17.113,38.146,38.147c0,21.034-17.112,38.147-38.146,38.147
	s-38.147-17.113-38.147-38.147C122.347,52.62,122.828,49.204,123.728,45.96z"/>
<g>
</g>
<g>
</g>
<g>
</g>
<g>
</g>
<g>
</g>
<g>
</g>
<g>
</g>
<g>
</g>
<g>
</g>
<g>
</g>
<g>
</g>
<g>
</g>
<g>
</g>
<g>
</g>
<g>
</g>
</svg>
