<svg height="auto" viewBox="0 0 256 256" width="100%" xmlns="http://www.w3.org/2000/svg"><path d="m164.5 212.167h-119.272a2.5 2.5 0 0 1 0-5h119.272a2.5 2.5 0 0 1 0 5z" fill="#ebe7f2"/><path d="m104.866 102.376a39.355 39.355 0 0 1 -38.99-33.048 2.5 2.5 0 0 1 4.934-.813 34.523 34.523 0 0 0 68.064.28 2.5 2.5 0 1 1 4.927.853 39.416 39.416 0 0 1 -38.935 32.728z" fill="#ebe7f2"/><path d="m164.5 170.419a2.5 2.5 0 0 0 -2.5 2.5v44.738h-25.33v-36.067a2.5 2.5 0 0 0 -5 0v36.067h-53.609v-36.067a2.5 2.5 0 0 0 -5 0v36.067h-25.333v-55.582a28.378 28.378 0 0 1 28.347-28.346h57.581a2.5 2.5 0 0 0 0-5h-57.581a33.385 33.385 0 0 0 -33.347 33.346v58.082a2.5 2.5 0 0 0 2.5 2.5h119.272a2.5 2.5 0 0 0 2.5-2.5v-47.238a2.5 2.5 0 0 0 -2.5-2.5z" fill="#846f75"/><path d="m104.866 112.376a39.517 39.517 0 1 0 -39.517-39.516 39.561 39.561 0 0 0 39.517 39.516zm0-74.033a34.517 34.517 0 1 1 -34.517 34.517 34.556 34.556 0 0 1 34.517-34.517z" fill="#846f75"/><g fill="#f9b087"><path d="m181.978 150.68h-9.186a2.5 2.5 0 0 1 -2.5-2.5v-9.859h-9.859a2.5 2.5 0 0 1 -2.5-2.5v-9.185a2.5 2.5 0 0 1 2.5-2.5h9.859v-9.86a2.5 2.5 0 0 1 2.5-2.5h9.186a2.5 2.5 0 0 1 2.5 2.5v9.86h9.858a2.5 2.5 0 0 1 2.5 2.5v9.185a2.5 2.5 0 0 1 -2.5 2.5h-9.858v9.859a2.5 2.5 0 0 1 -2.5 2.5zm-6.686-5h4.186v-9.859a2.5 2.5 0 0 1 2.5-2.5h9.858v-4.185h-9.858a2.5 2.5 0 0 1 -2.5-2.5v-9.86h-4.186v9.86a2.5 2.5 0 0 1 -2.5 2.5h-9.859v4.185h9.859a2.5 2.5 0 0 1 2.5 2.5z"/><path d="m177.384 167.116a35.888 35.888 0 1 1 35.888-35.887 35.928 35.928 0 0 1 -35.888 35.887zm0-66.775a30.888 30.888 0 1 0 30.888 30.888 30.922 30.922 0 0 0 -30.888-30.888z"/></g></svg>